# xmcd
#
# Track frame offsets:
# 150
# 16110
# 31208
# 43832
# 64102
# 79073
# 97476
# 113683
# 130427
# 148260
# 160803
# 179310
# 196683
# 219351
# 235915
# 245704
# 264562
# 280277
# 304585
#
# Disc length: 4288 seconds
#
#
# Revision: 3
# Processed by: cddbd v1.5.2PL0 Copyright (c) Steve Scherf et al.
# Submitted via: FreeRIP 2.945 
#
DISCID=1210be13
DTITLE=Willie Nelson and Friends - Outlaws And Angels
DYEAR=2004
DGENRE=Country
TTITLE0=Willie Nelson and Toby Keith and Joe Walsh - Georgia On A Fast Train (live)
TTITLE1=Willie Nelson and Toby Keith and Joe Walsh and Merle Haggard - Ramblin' Fever (live)
TTITLE2=Willie Nelson and Kid Rock - Shotgun Willie (live)
TTITLE3=Willie Nelson and Al Green - Rainin' In My Heart (live)
TTITLE4=Willie Nelson and Shelby Lynne - Stormy Weather (live)
TTITLE5=Willie Nelson and Carole King - Will You Still Love Me Tomorrow (live)
TTITLE6=Willie Nelson and Toots Hibbert - Still Is Still Moving To Me (live)
TTITLE7=Willie Nelson and Ben Harper - Midnight Rider (live)
TTITLE8=Willie Nelson and Toots Hibbert - Pressure Drop (live)
TTITLE9=Willie Nelson and Lee Ann Womack - I'll Never Be Free (live)
TTITLE10=Willie Nelson and Holmes Brothers - Opportunity To Cry (live)
TTITLE11=Willie Nelson and Los Lonely Boys - Cisco Kid (live)
TTITLE12=Willie Nelson and Merle Haggard and Toby Keith - Pancho and Lefty (live)
TTITLE13=Willie Nelson and Lucinda Williams - Overtime (live)
TTITLE14=Willie Nelson and Merle Haggard and Toby Keith - Mama Tried (live)
TTITLE15=Willie Nelson and Rickie Lee Jones - Comes Love (live)
TTITLE16=Willie Nelson and Keith Richards - We Had It All (live)
TTITLE17=Willie Nelson and Jerry Lee Lewis and Kid Rock and Keith Richards and Merle Haggard - Whole Lotta Shakin' Goin' On (live)
TTITLE18=Willie Nelson and Merle Haggard - I'll Fly Away (live)
EXTD=
EXTT0=
EXTT1=
EXTT2=
EXTT3=
EXTT4=
EXTT5=
EXTT6=
EXTT7=
EXTT8=
EXTT9=
EXTT10=
EXTT11=
EXTT12=
EXTT13=
EXTT14=
EXTT15=
EXTT16=
EXTT17=
EXTT18=
PLAYORDER=
